#!OML:ASF F:\VICON\USERDATA\INSTALL\rory3\rory3.ASF
:FULLY-SPECIFIED
:DEGREES
391
root -1.05087 17.4998 -3.26276 2.57351 -5.38123 4.9434
lowerback 5.38734 -1.58039 -4.35764
upperback 1.99707 -2.29191 3.09895
thorax -0.655677 -1.17985 5.79663
lowerneck -22.6262 -3.76447 -10.5076
upperneck 5.84557 -3.34451 10.7882
head 5.75855 -1.04006 4.82316
rclavicle -5.18828e-014 5.56597e-014
rhumerus -15.2493 24.0984 -91.5957
rradius 56.5593
rwrist 6.27398
rhand -36.7149 6.90258
rfingers 7.12502
rthumb -9.7996 -22.8494
lclavicle -5.18828e-014 5.56597e-014
lhumerus -10.2186 -22.5601 95.1139
lradius 43.5588
lwrist -14.5604
lhand -17.3113 27.6909
lfingers 7.12502
lthumb 8.93493 57.4817
rfemur -31.8417 -1.43967 8.95713
rtibia 33.2469
rfoot -13.3926 -7.96799
rtoes -3.08421
lfemur -0.581883 0.318551 -27.8772
ltibia 20.9769
lfoot -19.2473 4.22965
ltoes -8.46708
392
root -1.04406 17.5076 -3.29219 2.54047 -5.39766 4.90355
lowerback 5.43963 -1.50934 -4.35362
upperback 1.98727 -2.19938 3.02355
thorax -0.710583 -1.13108 5.71266
lowerneck -22.7101 -3.81137 -10.5564
upperneck 5.64568 -3.37302 10.7976
head 5.7117 -1.05257 4.82924
rclavicle -6.36111e-015 -1.59028e-015
rhumerus -15.8697 23.3191 -90.953
rradius 56.0165
rwrist 8.09201
rhand -35.9952 7.84919
rfingers 7.12502
rthumb -9.10522 -21.9343
lclavicle -6.36111e-015 -1.59028e-015
lhumerus -11.1281 -22.8283 94.6063
lradius 43.1697
lwrist -17.0508
lhand -18.5542 26.8783
lfingers 7.12502
lthumb 7.73544 56.7168
rfemur -31.7445 -1.75013 9.07841
rtibia 33.0357
rfoot -14.0482 -8.38527
rtoes -2.0339
lfemur -0.68226 0.34564 -27.8371
ltibia 20.9689
lfoot -19.2044 4.23854
ltoes -8.56755
393
root -1.03704 17.5132 -3.31897 2.44522 -5.2493 4.89531
lowerback 5.50998 -1.48363 -4.29425
upperback 2.00143 -2.16561 2.89178
thorax -0.747449 -1.11235 5.54089
lowerneck -22.7182 -3.87769 -10.6568
upperneck 5.37949 -3.42675 10.8973
head 5.63863 -1.07372 4.87021
rclavicle -2.78299e-015 6.36111e-015
rhumerus -16.6318 22.337 -90.393
rradius 55.6578
rwrist 9.73639
rhand -34.8302 7.50413
rfingers 7.12502
rthumb -7.98092 -22.3252
lclavicle -2.78299e-015 6.36111e-015
lhumerus -12.0225 -23.348 94.04
lradius 42.6958
lwrist -18.7737
lhand -19.5166 26.3449
lfingers 7.12502
lthumb 6.80647 56.2155
rfemur -31.519 -2.31205 9.19531
rtibia 32.8553
rfoot -14.67 -8.70025
rtoes -1.82961
lfemur -0.68899 0.319117 -27.8139
ltibia 20.9296
lfoot -19.1608 4.11784
ltoes -8.69296
394
root -1.03229 17.5208 -3.34214 2.39005 -5.33728 4.80077
lowerback 5.49638 -1.35867 -4.23129
upperback 2.01847 -1.99622 2.80814
thorax -0.749419 -1.02708 5.40755
lowerneck -22.5797 -3.93035 -10.7619
upperneck 4.94113 -3.45877 10.9573
head 5.48537 -1.09195 4.89941
rclavicle 2.10712e-014 -3.81667e-014
rhumerus -17.3503 21.2313 -89.7852
rradius 55.1007
rwrist 11.17
rhand -33.6093 7.67695
rfingers 7.12502
rthumb -6.80246 -22.1938
lclavicle 2.10712e-014 -3.81667e-014
lhumerus -12.9897 -23.8897 93.5989
lradius 42.2507
lwrist -19.6962
lhand -20.1406 26.096
lfingers 7.12502
lthumb 6.20403 55.9852
rfemur -31.4035 -2.79515 9.46759
rtibia 32.7101
rfoot -15.0937 -8.97305
rtoes -2.15199
lfemur -0.652318 0.413652 -27.7225
ltibia 20.8812
lfoot -19.0594 4.07524
ltoes -8.67027
395
root -1.03148 17.5292 -3.36792 2.36979 -5.493 4.67416
lowerback 5.53164 -1.26209 -4.25185
upperback 2.01322 -1.87003 2.78568
thorax -0.790345 -0.96254 5.39032
lowerneck -22.5595 -3.90346 -10.7437
upperneck 4.59206 -3.39327 10.8404
head 5.36042 -1.06984 4.86219
rclavicle -3.37934e-014 1.90833e-014
rhumerus -17.8959 20.1183 -89.1918
rradius 54.3342
rwrist 12.3279
rhand -32.4283 8.45918
rfingers 7.12502
rthumb -5.6623 -21.4452
lclavicle -3.37934e-014 1.90833e-014
lhumerus -13.9714 -24.0044 93.1898
lradius 41.7859
lwrist -19.9625
lhand -20.4421 25.9235
lfingers 7.12502
lthumb 5.91302 55.8209
rfemur -31.3689 -3.14912 9.77695
rtibia 32.6027
rfoot -15.5357 -9.41824
rtoes -1.97455
lfemur -0.715233 0.542665 -27.5881
ltibia 20.8815
lfoot -18.973 4.05358
ltoes -8.32439
396
root -1.02922 17.535 -3.39271 2.35168 -5.54651 4.64177
lowerback 5.55639 -1.23771 -4.31529
upperback 2.04758 -1.84225 2.74108
thorax -0.771438 -0.950012 5.37836
lowerneck -22.6935 -3.85694 -10.6955
upperneck 4.25427 -3.28985 10.6645
head 5.25599 -1.02869 4.80551
rclavicle 2.44505e-014 -7.95139e-015
rhumerus -18.3067 18.9118 -88.5897
rradius 53.6127
rwrist 13.0754
rhand -30.6019 8.43852
rfingers 7.12502
rthumb -3.8987 -21.5056
lclavicle 2.44505e-014 -7.95139e-015
lhumerus -14.9151 -23.862 92.701
lradius 41.4268
lwrist -19.4276
lhand -20.4841 25.6589
lfingers 7.12502
lthumb 5.87245 55.5575
rfemur -31.3299 -3.53419 9.93857
rtibia 32.5315
rfoot -16.0268 -9.83898
rtoes -1.75272
lfemur -0.815001 0.60754 -27.552
ltibia 20.9081
lfoot -18.9706 4.00662
ltoes -7.78716
397
root -1.02673 17.5374 -3.41309 2.39316 -5.63025 4.65951
lowerback 5.44851 -1.17698 -4.3532
upperback 2.11816 -1.76074 2.6298
thorax -0.651029 -0.913857 5.27426
lowerneck -22.8479 -3.88521 -10.7072
upperneck 3.83598 -3.28212 10.659
head 5.14582 -1.02217 4.80392
rclavicle -7.95139e-016 -9.54166e-015
rhumerus -18.8319 17.4482 -87.9681
rradius 53.1433
rwrist 13.4731
rhand -28.3915 8.19988
rfingers 7.12502
rthumb -1.76402 -21.7726
lclavicle -7.95139e-016 -9.54166e-015
lhumerus -15.9003 -23.8188 92.1963
lradius 41.17
lwrist -17.9445
lhand -19.6946 25.4827
lfingers 7.12502
lthumb 6.63463 55.3587
rfemur -31.382 -3.99774 10.0751
rtibia 32.4877
rfoot -16.3201 -10.2026
rtoes -1.83584
lfemur -0.923846 0.757808 -27.5744
ltibia 20.9544
lfoot -18.9516 3.98965
ltoes -8.01456
